<svg xmlns="http://www.w3.org/2000/svg" viewBox="0 0 1000 480" width="100%" role="img" aria-label="官方邮件三层处理：签发层锁定官方发信地址并注入认证标记，投递层不可变快照与预置翻译回退，客户端沙箱隔离与文档完整性存证">
  <style>
    .bg { fill: #f8fafc; }
    .band { fill: #ffffff; stroke: #e2e8f0; stroke-width: 1.5; }
    .box { fill: #ffffff; stroke: #e2e8f0; stroke-width: 1.5; }
    .box-blue { fill: #eff6ff; stroke: #2563eb; stroke-width: 1.5; }
    .box-green { fill: #f0fdf4; stroke: #16a34a; stroke-width: 1.5; }
    .box-amber { fill: #fffbeb; stroke: #d97706; stroke-width: 1.5; }
    .lbl-blue { font: 700 11px -apple-system, 'Segoe UI', Roboto, 'PingFang TC', 'Microsoft JhengHei', 'Noto Sans', sans-serif; fill: #2563eb; letter-spacing: 1.4px; }
    .lbl-green { font: 700 11px -apple-system, 'Segoe UI', Roboto, 'PingFang TC', 'Microsoft JhengHei', 'Noto Sans', sans-serif; fill: #16a34a; letter-spacing: 1.4px; }
    .lbl-amber { font: 700 11px -apple-system, 'Segoe UI', Roboto, 'PingFang TC', 'Microsoft JhengHei', 'Noto Sans', sans-serif; fill: #d97706; letter-spacing: 1.4px; }
    .t { font: 600 14px -apple-system, 'Segoe UI', Roboto, 'PingFang TC', 'Microsoft JhengHei', 'Noto Sans', sans-serif; fill: #0f172a; }
    .b { font: 400 11.5px -apple-system, 'Segoe UI', Roboto, 'PingFang TC', 'Microsoft JhengHei', 'Noto Sans', sans-serif; fill: #64748b; }
    .mono { font: 500 11px ui-monospace, 'Cascadia Code', Consolas, monospace; fill: #64748b; }
    .arrow { stroke: #94a3b8; stroke-width: 1.8; fill: none; marker-end: url(#pa); }
    @media (prefers-color-scheme: dark) {
      .bg { fill: #0b0f19; }
      .band { fill: #111827; stroke: #1e293b; }
      .box { fill: #111827; stroke: #1e293b; }
      .box-blue { fill: rgba(59,130,246,0.12); stroke: #3b82f6; }
      .box-green { fill: rgba(34,197,94,0.12); stroke: #22c55e; }
      .box-amber { fill: rgba(245,158,11,0.12); stroke: #f59e0b; }
      .lbl-blue { fill: #60a5fa; }
      .lbl-green { fill: #4ade80; }
      .lbl-amber { fill: #fbbf24; }
      .t { fill: #f1f5f9; }
      .b { fill: #94a3b8; }
      .mono { fill: #94a3b8; }
      .arrow { stroke: #475569; }
    }
  </style>
  <defs>
    <marker id="pa" viewBox="0 0 10 10" refX="9" refY="5" markerWidth="7" markerHeight="7" orient="auto-start-reverse">
      <path d="M0,0 L10,5 L0,10 z" fill="#94a3b8"/>
    </marker>
  </defs>
  <rect class="bg" width="1000" height="480" rx="16"/>
  <rect class="band" x="40" y="35" width="920" height="110" rx="14"/>
  <text class="lbl-blue" x="60" y="58">第一层 · 官方发信身份（签发）</text>
  <rect class="box-blue" x="60" y="70" width="270" height="60" rx="10"/>
  <text class="t" x="78" y="93" font-size="13">官方发信地址锁定</text>
  <text class="mono" x="78" y="112">announcement@epocanvas.com</text>
  <rect class="box" x="355" y="70" width="270" height="60" rx="10"/>
  <text class="t" x="373" y="93" font-size="13">官方认证标记（isOfficial）</text>
  <text class="b" x="373" y="112">官方地址与「官方」标签</text>
  <rect class="box-green" x="650" y="70" width="290" height="60" rx="10"/>
  <text class="t" x="668" y="93" font-size="13">阅读标识与横幅</text>
  <text class="b" x="668" y="112">官方邮件于客户端醒目标示</text>
  <path class="arrow" d="M195,145 L195,185"/>
  <path class="arrow" d="M490,145 L490,185"/>
  <path class="arrow" d="M795,145 L795,185"/>
  <rect class="band" x="40" y="190" width="920" height="115" rx="14"/>
  <text class="lbl-amber" x="60" y="213">第二层 · 不可变投递（存储）</text>
  <rect class="box" x="60" y="225" width="270" height="64" rx="10"/>
  <text class="t" x="78" y="249" font-size="13">不可变快照</text>
  <text class="b" x="78" y="268">发送时一次渲染，与语言解耦</text>
  <rect class="box-amber" x="355" y="225" width="270" height="64" rx="10"/>
  <text class="t" x="373" y="249" font-size="13">预置翻译回退</text>
  <text class="b" x="373" y="268">未修改本地渲染；已修改经 AI</text>
  <rect class="box" x="650" y="225" width="290" height="64" rx="10"/>
  <text class="t" x="668" y="249" font-size="13">生命周期与加密</text>
  <text class="b" x="668" y="268">按配置天数过期（缺省 7 日）</text>
  <path class="arrow" d="M195,305 L195,345"/>
  <path class="arrow" d="M490,305 L490,345"/>
  <path class="arrow" d="M795,305 L795,345"/>
  <rect class="band" x="40" y="350" width="920" height="105" rx="14"/>
  <text class="lbl-green" x="60" y="373">第三层 · 客户端沙箱与文档完整性（核验）</text>
  <rect class="box-green" x="60" y="383" width="270" height="58" rx="10"/>
  <text class="t" x="78" y="405" font-size="13">Shadow DOM 隔离</text>
  <text class="b" x="78" y="423">页面样式与脚本不进出</text>
  <rect class="box" x="355" y="383" width="270" height="58" rx="10"/>
  <text class="t" x="373" y="405" font-size="13">DOMPurify 白名单</text>
  <text class="b" x="373" y="423">移除 script · iframe · embed · form · style</text>
  <rect class="box-blue" x="650" y="383" width="290" height="58" rx="10"/>
  <text class="t" x="668" y="405" font-size="13">完整性清单</text>
  <text class="b" x="668" y="423">tamper-proof.json · SHA-256 · git 提交锚点</text>
</svg>
